#N canvas 629 199 1329 942 12;
#X obj 124 97 noise~;
#X obj 210 190 lop~ 1;
#X obj 210 214 env~;
#X msg 214 292 bang;
#X obj 58 574 *~;
#X obj 386 701 dac~;
#X obj 202 238 moses 50;
#X obj 214 266 moses 51;
#X obj 1069 153 hip~ 1000;
#X obj 1157 128 lop~ 1;
#X obj 1083 81 noise~;
#X obj 1156 159 *~ 10;
#X obj 1156 195 *~;
#X obj 1160 227 *~;
#X obj 1160 251 *~ 600;
#X obj 1108 318 *~;
#X text 1089 31 hiss;
#X text 47 45 crackle density and control;
#X obj 213 319 random 30;
#X obj 211 345 t f f;
#X obj 207 401 * 500;
#X obj 207 432 + 1500;
#X obj 122 463 bp~ 2000 1;
#X msg 57 405 1 \, 0 \$1;
#X obj 56 440 line~;
#X obj 57 528 *~;
#X obj 55 491 *~;
#X obj 554 106 noise~;
#X text 552 58 flames;
#X obj 553 155 bp~ 30 5;
#X obj 549 212 *~ 100;
#X obj 551 262 hip~ 25;
#X obj 551 286 *~ 0.6;
#X obj 332 617 *~ 0.2;
#X obj 405 618 *~ 0.3;
#X obj 464 615 *~ 0.6;
#X obj 720 250 loadbang;
#X msg 719 287 \; pd dsp 1;
#X connect 0 0 1 0;
#X connect 0 0 22 0;
#X connect 1 0 2 0;
#X connect 2 0 6 0;
#X connect 3 0 18 0;
#X connect 4 0 33 0;
#X connect 6 1 7 0;
#X connect 7 0 3 0;
#X connect 8 0 15 0;
#X connect 9 0 11 0;
#X connect 10 0 8 0;
#X connect 10 0 9 0;
#X connect 11 0 12 0;
#X connect 11 0 12 1;
#X connect 12 0 13 0;
#X connect 12 0 13 1;
#X connect 13 0 14 0;
#X connect 14 0 15 1;
#X connect 15 0 35 0;
#X connect 18 0 19 0;
#X connect 19 0 23 0;
#X connect 19 1 20 0;
#X connect 20 0 21 0;
#X connect 21 0 22 1;
#X connect 22 0 4 1;
#X connect 23 0 24 0;
#X connect 24 0 26 0;
#X connect 24 0 26 1;
#X connect 25 0 4 0;
#X connect 26 0 25 0;
#X connect 26 0 25 1;
#X connect 27 0 29 0;
#X connect 29 0 30 0;
#X connect 30 0 31 0;
#X connect 31 0 32 0;
#X connect 32 0 34 0;
#X connect 33 0 5 0;
#X connect 33 0 5 1;
#X connect 34 0 5 0;
#X connect 34 0 5 1;
#X connect 35 0 5 0;
#X connect 35 0 5 1;
#X connect 36 0 37 0;
